<svg xmlns="http://www.w3.org/2000/svg" viewBox="0 0 24 24" width="64" height="64">
  <defs>
    <linearGradient id="s1" x1="0" x2="1">
      <stop offset="0" stop-color="#1DB954" />
      <stop offset="1" stop-color="#17a44b" />
    </linearGradient>
  </defs>
  <rect width="24" height="24" rx="4" fill="url(#s1)" />
  <path fill="#fff" d="M7.9 9.2c3.1-1.9 6.9-1.8 9.8-.2.3.2.5.5.4.9-.1.4-.5.6-.9.5-2.6-1.3-5.7-1.4-8.3.2-.3.2-.7.1-.9-.2-.1-.3 0-.7.2-.7zM6.3 12.1c3.5-2.2 7.8-2.3 11.6-.3.4.2.6.7.4 1.1-.2.4-.7.6-1.1.4-3.1-1.8-6.8-1.8-9.7.2-.3.2-.7.2-1 0-.4-.2-.6-.7-.2-1.4zM6 14.8c.2-.3.6-.4.9-.2 3.9 2.2 9.1 2 12.7.2.4-.2.9 0 1.1.4.2.4 0 .9-.4 1.1-3.9 1.9-9.6 1.9-13.5-.3-.3-.2-.4-.7-.8-1.2z"/>
</svg>
